<?xml version="1.0" encoding="UTF-8" standalone="no"?>
<svg
   viewBox="0 0 97.01 97.01"
   version="1.1"
   id="svg16"
   sodipodi:docname="cvlac_mono.svg"
   inkscape:version="1.1 (c68e22c387, 2021-05-23)"
   xmlns:inkscape="http://www.inkscape.org/namespaces/inkscape"
   xmlns:sodipodi="http://sodipodi.sourceforge.net/DTD/sodipodi-0.dtd"
   xmlns="http://www.w3.org/2000/svg"
   xmlns:svg="http://www.w3.org/2000/svg"
   xmlns:rdf="http://www.w3.org/1999/02/22-rdf-syntax-ns#"
   xmlns:cc="http://creativecommons.org/ns#"
   xmlns:dc="http://purl.org/dc/elements/1.1/">
  <sodipodi:namedview
     id="namedview18"
     pagecolor="#ffffff"
     bordercolor="#666666"
     borderopacity="1.0"
     inkscape:pageshadow="2"
     inkscape:pageopacity="0.0"
     inkscape:pagecheckerboard="0"
     showgrid="false"
     inkscape:zoom="7.0302029"
     inkscape:cx="80.011915"
     inkscape:cy="48.433879"
     inkscape:window-width="1920"
     inkscape:window-height="1027"
     inkscape:window-x="1912"
     inkscape:window-y="-8"
     inkscape:window-maximized="1"
     inkscape:current-layer="Capa_1-2" />
  <defs
     id="defs4">
    <style
       id="style2">.cls-1{fill:#30c3e3;}.cls-2,.cls-3{fill:#141345;}.cls-2{fill-rule:evenodd;}.cls-3{font-size:17.76px;font-family:Candara, Candara;}</style>
  </defs>
  <title
     id="title6">Recurso 5</title>
  <g
     id="Capa_2"
     data-name="Capa 2">
    <g
       id="Capa_1-2"
       data-name="Capa 1">
      <circle
         class="cls-1"
         cx="48.509998"
         cy="48.5"
         transform="rotate(-9.22,48.517367,48.474262)"
         id="circle8"
         r="48.509998"
         style="fill:#000000" />
      <g
         id="g1017"
         transform="matrix(1.2863017,0,0,1.2863017,-14.331259,-13.917399)">
        <path
           class="cls-2"
           d="m 51,32.08 c -0.67,0.15 -1.09,-0.13 -1,-0.62 0.64,-2.35 1.28,-4.63 1.89,-6.82 a 2,2 0 0 1 1.37,-1.13 c 0.63,-0.17 1.06,0.06 0.94,0.51 q -0.89,3.33 -1.81,6.87 A 2,2 0 0 1 51,32.08 Z M 39.88,74.91 A 1.1,1.1 0 0 1 38.82,73.4 q 1.53,-5.93 3,-11.36 a 2.06,2.06 0 0 1 1.68,-1.44 0.93,0.93 0 0 1 1.06,1.22 q -1.37,5.52 -2.82,11.54 a 2.08,2.08 0 0 1 -1.86,1.55 z M 81,40.86 c -4.74,0.72 -9.27,1.41 -13.62,2.09 -0.87,0.13 -1.5,-0.3 -1.4,-1 a 2,2 0 0 1 1.73,-1.41 l 13.42,-2.21 c 1,-0.16 1.78,0.26 1.76,0.93 C 82.87,39.93 82,40.7 81,40.86 Z M 67.3,64 a 1.71,1.71 0 0 1 -1.23,-0.38 l -8.31,-7.46 c -0.51,-0.47 -0.36,-1.3 0.33,-1.88 A 1.85,1.85 0 0 1 60.33,54 c 2.68,2.27 5.53,4.67 8.56,7.25 A 1.39,1.39 0 0 1 68.65,63.44 2.3,2.3 0 0 1 67.3,64 Z M 38.52,38.36 a 0.77,0.77 0 0 1 -0.68,-0.11 l -4,-3.61 c -0.27,-0.24 -0.07,-0.76 0.43,-1.18 0.5,-0.42 1.13,-0.56 1.39,-0.34 l 4.15,3.51 c 0.31,0.26 0.12,0.84 -0.43,1.29 a 2,2 0 0 1 -0.85,0.44 z M 62.93,33.19 A 1.35,1.35 0 0 1 62,33.11 C 61.53,32.83 61.65,32.2 62.26,31.7 l 8.84,-7.24 a 2.28,2.28 0 0 1 2.06,-0.5 c 0.52,0.23 0.46,0.83 -0.16,1.34 l -9,7.39 a 2.48,2.48 0 0 1 -1,0.5 z M 22.65,66.62 A 0.62,0.62 0 0 1 22,66.3 1.55,1.55 0 0 1 22.63,64.57 q 4.39,-3.69 8.8,-7.35 c 0.6,-0.51 1.35,-0.6 1.66,-0.19 0.31,0.41 0.06,1.16 -0.55,1.68 l -9,7.49 a 1.75,1.75 0 0 1 -0.94,0.42 z m 34.12,-35 a 2.19,2.19 0 0 0 1.81,-0.91 q 2.67,-3.89 5.26,-7.64 c 0.36,-0.51 0.13,-0.92 -0.49,-0.93 A 2.39,2.39 0 0 0 61.6,23 q -2.6,3.7 -5.26,7.53 c -0.36,0.53 -0.17,1 0.43,1 z m -27.95,41 a 1.68,1.68 0 0 0 1.92,-0.83 c 2.33,-3.48 4.62,-6.91 6.86,-10.24 0.45,-0.68 0.34,-1.39 -0.24,-1.59 a 1.8,1.8 0 0 0 -1.86,0.85 l -6.8,10 c -0.48,0.72 -0.43,1.53 0.12,1.8 z M 76.66,52.22 64.2,49.65 a 1,1 0 0 1 -0.65,-1.53 2.29,2.29 0 0 1 2.19,-1 c 3.92,0.74 8.09,1.5 12.5,2.32 a 1.13,1.13 0 0 1 0.93,1.71 2.48,2.48 0 0 1 -2.51,1.06 z M 53.43,71.83 A 1.23,1.23 0 0 1 52.67,70.99 Q 51.23,65.4 50,60.41 a 1.77,1.77 0 0 1 1.16,-1.85 c 0.84,-0.36 1.65,-0.12 1.83,0.55 q 1.41,5 3,10.54 a 1.9,1.9 0 0 1 -1.26,2.13 1.73,1.73 0 0 1 -1.28,0 z M 43.87,34.59 A 0.49,0.49 0 0 1 43.4,34.25 c -0.46,-1.88 -0.9,-3.68 -1.32,-5.42 -0.09,-0.36 0.31,-0.89 0.9,-1.2 0.59,-0.31 1.14,-0.28 1.23,0.06 0.47,1.73 1,3.52 1.48,5.39 0.11,0.39 -0.32,1 -1,1.32 a 1.54,1.54 0 0 1 -0.86,0.19 z M 66,37 a 2.26,2.26 0 0 0 1.15,-0.22 L 79.17,31.1 c 0.85,-0.41 1.29,-1.12 1,-1.59 C 79.88,29.04 78.86,29 78,29.4 L 66.23,35 c -0.79,0.38 -1.24,1.07 -1,1.56 A 0.88,0.88 0 0 0 66,37 Z M 20.39,58.87 a 0.94,0.94 0 0 0 0.78,-0.1 l 9.2,-4.45 a 1.82,1.82 0 0 0 1.09,-1.53 C 31.41,52.27 30.85,52.11 30.2,52.43 l -9,4.43 a 2,2 0 0 0 -1.1,1.49 0.51,0.51 0 0 0 0.29,0.52 z"
           id="path10"
           style="fill:#ffffff" />
        <text
           class="cls-3"
           transform="translate(13.81,51.42)"
           id="text12"
           style="fill:#ffffff">CvLAC</text>
      </g>
    </g>
  </g>
  <metadata
     id="metadata1137">
    <rdf:RDF>
      <cc:Work
         rdf:about="">
        <dc:title>Recurso 5</dc:title>
      </cc:Work>
    </rdf:RDF>
  </metadata>
</svg>
