<?xml version="1.0" encoding="UTF-8"?>
<!-- Created with Inkscape (http://www.inkscape.org/) -->
<svg width="1332.5" height="2069.1" version="1.1" viewBox="0 0 1332.5 2069.1" xmlns="http://www.w3.org/2000/svg">
 <path transform="scale(1.3333)" d="m881.54 1551.9h-763.68c-65.093 0-117.86-43.566-117.86-97.304v-503.93c0-53.738 52.77-97.305 117.86-97.305h763.68c65.094 0 117.86 43.567 117.86 97.305v503.93c0 53.742-52.769 97.304-117.86 97.304" fill="#d400aa"/>
 <path transform="matrix(1.2631 1.3333 -1.3333 1.2631 0 0)" d="m303.11-287.85 403.46-1e-3c35.819 1e-3 64.658 28.839 64.658 64.66l-1e-3 403.46c1e-3 35.82-28.835 64.657-64.656 64.657h-403.46c-35.821 0-64.659-28.838-64.66-64.659l1e-3 -403.46c-1e-3 -35.821 28.837-64.659 64.656-64.658z" fill="#f9f9f9" stroke="#1a1a1a" stroke-linecap="round" stroke-linejoin="round" stroke-width="3.7145"/>
 <g fill="#fff">
  <path transform="scale(1.3333)" d="m409.57 1503.8h-1.339l-5.168-11.843h1.531l4.305 9.933 4.312-9.933h1.531z"/>
  <path transform="scale(1.3333)" d="m416.75 1503.8v-8.703h1.367v8.703zm1.609-11.347c0 0.512-0.402 0.906-0.937 0.906-0.528 0-0.914-0.394-0.914-0.906 0-0.473 0.386-0.887 0.914-0.887 0.535 0 0.937 0.414 0.937 0.887"/>
  <path transform="scale(1.3333)" d="m428.4 1499.5c0-2.074-1.617-3.399-3.257-3.399-1.805 0-3.254 1.325-3.254 3.399 0 2.078 1.449 3.375 3.254 3.375 1.64 0 3.257-1.297 3.257-3.375m1.344 4.73c0 2.457-2.039 4.043-4.582 4.043-2.18 0-3.613-0.851-4.297-2.254l1.164-0.883c0.606 1.176 1.481 1.829 3.133 1.829 1.766 0 3.219-1.129 3.238-2.914v-1.657c-0.765 1.071-1.988 1.692-3.468 1.692-2.328 0-4.352-1.828-4.352-4.586 0-2.766 2.024-4.574 4.352-4.574 1.48 0 2.703 0.617 3.468 1.664v-1.45h1.344z"/>
  <path transform="scale(1.3333)" d="m432.98 1503.8v-8.703h1.368v8.703zm1.614-11.347c0 0.512-0.41 0.906-0.938 0.906-0.531 0-0.918-0.394-0.918-0.906 0-0.473 0.387-0.887 0.918-0.887 0.528 0 0.938 0.414 0.938 0.887"/>
  <path transform="scale(1.3333)" d="m438.75 1501.6c0 0.707 0.492 1.16 1.23 1.16 0.344 0 0.704-0.105 1.051-0.269l0.278 1.125c-0.422 0.242-0.868 0.449-1.539 0.449-1.43 0-2.372-0.965-2.372-2.395v-11.461h1.352z"/>
  <path transform="scale(1.3333)" d="m448.73 1500.2v-0.445h-2.945c-1.441 0-2.203 0.683-2.203 1.652 0 0.914 0.82 1.567 2.07 1.567 1.696 0 3.078-1.184 3.078-2.774m1.317-2.004v5.652h-1.317v-1.312c-0.664 0.902-1.757 1.551-3.273 1.551-1.898 0-3.16-1.102-3.16-2.664 0-1.61 1.223-2.735 3.5-2.735h2.933v-0.398c0-1.363-0.882-2.192-2.218-2.192-1.328 0-2.254 0.676-2.446 1.77l-1.289-0.289c0.278-1.578 1.75-2.648 3.657-2.648 2.171 0 3.613 1.156 3.613 3.265"/>
  <path transform="scale(1.3333)" d="m459.76 1499.5c0-2.074-1.61-3.399-3.254-3.399-1.809 0-3.254 1.325-3.254 3.399 0 2.078 1.445 3.375 3.254 3.375 1.644 0 3.254-1.297 3.254-3.375m1.344 4.351h-1.344v-1.457c-0.762 1.071-1.988 1.692-3.477 1.692-2.316 0-4.343-1.828-4.343-4.586 0-2.766 2.027-4.574 4.343-4.574 1.489 0 2.715 0.617 3.477 1.664v-6.36h1.344z"/>
  <path transform="scale(1.3333)" d="m469.84 1500.2v-0.445h-2.949c-1.442 0-2.196 0.683-2.196 1.652 0 0.914 0.813 1.567 2.071 1.567 1.687 0 3.074-1.184 3.074-2.774m1.308-2.004v5.652h-1.308v-1.312c-0.668 0.902-1.766 1.551-3.27 1.551-1.91 0-3.172-1.102-3.172-2.664 0-1.61 1.219-2.735 3.508-2.735h2.934v-0.398c0-1.363-0.883-2.192-2.231-2.192-1.32 0-2.246 0.676-2.425 1.77l-1.301-0.289c0.281-1.578 1.754-2.648 3.66-2.648 2.176 0 3.605 1.156 3.605 3.265"/>
  <path transform="scale(1.3333)" d="m491.06 1503.8h-1.339v-8.687l-4.578 8.687h-0.903l-4.601-8.687v8.687h-1.352v-11.843h1.234l5.161 9.765 5.156-9.765h1.222z"/>
  <path transform="scale(1.3333)" d="m494.34 1503.8v-8.703h1.348v8.703zm1.598-11.347c0 0.512-0.407 0.906-0.938 0.906-0.539 0-0.918-0.394-0.918-0.906 0-0.473 0.379-0.887 0.918-0.887 0.531 0 0.938 0.414 0.938 0.887"/>
  <path transform="scale(1.3333)" d="m507.08 1498.6v5.207h-1.351v-4.968c0-1.606-0.961-2.719-2.422-2.719-1.825 0-3.016 1.226-3.016 3.504v4.183h-1.34v-8.707h1.34v1.45c0.691-1.067 1.816-1.664 3.293-1.664 2.102 0 3.496 1.496 3.496 3.714"/>
  <path transform="scale(1.3333)" d="m510.54 1498.7h6.051c-0.242-1.707-1.461-2.656-2.934-2.656-1.398 0-2.863 0.949-3.117 2.656m7.422 1.019h-7.484c0.113 1.961 1.601 3.129 3.109 3.129 1.234 0 2.352-0.472 2.961-1.883l1.199 0.29c-0.672 1.812-2.207 2.777-4.16 2.777-2.313 0-4.418-1.793-4.418-4.563 0-2.812 2.105-4.597 4.488-4.597 2.371 0 4.203 1.746 4.305 4.34z"/>
  <path transform="scale(1.3333)" d="m527.28 1499.5c0-2.074-1.597-3.399-3.246-3.399-1.801 0-3.261 1.325-3.261 3.399 0 2.078 1.46 3.375 3.261 3.375 1.649 0 3.246-1.297 3.246-3.375m1.356 4.351h-1.356v-1.457c-0.75 1.071-1.976 1.692-3.449 1.692-2.32 0-4.348-1.828-4.348-4.586 0-2.766 2.028-4.574 4.348-4.574 1.473 0 2.699 0.617 3.449 1.664v-6.36h1.356z"/>
  <path transform="scale(1.3333)" d="m539.7 1503.8h-1.363v-1.406c-0.691 1.035-1.848 1.645-3.277 1.645-2.11 0-3.516-1.508-3.516-3.727v-5.207h1.367v4.973c0 1.621 0.949 2.683 2.399 2.683 1.828 0 3.027-1.203 3.027-3.472v-4.184h1.363z"/>
  <path transform="scale(1.3333)" d="m549.41 1500.8 1.246 0.328c-0.531 1.738-2.207 2.895-4.136 2.895-2.457 0-4.543-1.817-4.543-4.59 0-2.731 2.086-4.571 4.543-4.571 1.91 0 3.582 1.106 4.14 2.883l-1.293 0.395c-0.406-1.332-1.574-2.043-2.847-2.043-1.778 0-3.231 1.347-3.231 3.336 0 2.039 1.453 3.336 3.231 3.336 1.273 0 2.441-0.696 2.89-1.969"/>
  <path transform="scale(1.3333)" d="m558.61 1500.2v-0.445h-2.964c-1.442 0-2.196 0.683-2.196 1.652 0 0.914 0.801 1.567 2.063 1.567 1.711 0 3.097-1.184 3.097-2.774m1.289-2.004v5.652h-1.289v-1.312c-0.687 0.902-1.789 1.551-3.277 1.551-1.918 0-3.16-1.102-3.16-2.664 0-1.61 1.199-2.735 3.492-2.735h2.945v-0.398c0-1.363-0.914-2.192-2.226-2.192-1.34 0-2.274 0.676-2.449 1.77l-1.297-0.289c0.289-1.578 1.75-2.648 3.656-2.648 2.184 0 3.605 1.156 3.605 3.265"/>
  <path transform="scale(1.3333)" d="m569.23 1500.8 1.243 0.328c-0.508 1.738-2.184 2.895-4.114 2.895-2.464 0-4.554-1.817-4.554-4.59 0-2.731 2.09-4.571 4.554-4.571 1.899 0 3.582 1.106 4.145 2.883l-1.297 0.395c-0.426-1.332-1.562-2.043-2.848-2.043-1.793 0-3.242 1.347-3.242 3.336 0 2.039 1.449 3.336 3.242 3.336 1.286 0 2.422-0.696 2.871-1.969"/>
  <path transform="scale(1.3333)" d="m572.91 1503.8v-8.703h1.371v8.703zm1.606-11.347c0 0.512-0.379 0.906-0.926 0.906-0.527 0-0.914-0.394-0.914-0.906 0-0.473 0.387-0.887 0.914-0.887 0.547 0 0.926 0.414 0.926 0.887"/>
  <path transform="scale(1.3333)" d="m580.88 1493.7 1.422-2.484h1.574l-1.805 2.484zm3.785 5.758c0-2.004-1.496-3.352-3.285-3.352-1.801 0-3.332 1.348-3.332 3.352 0 2 1.531 3.383 3.332 3.383 1.789 0 3.285-1.383 3.285-3.383m1.309 0c0 2.664-2.028 4.582-4.594 4.582-2.598 0-4.633-1.918-4.633-4.582 0-2.695 2.035-4.547 4.633-4.547 2.566 0 4.594 1.852 4.594 4.547"/>
  <path transform="scale(1.3333)" d="m596.41 1498.6v5.207h-1.336v-4.968c0-1.606-0.988-2.719-2.422-2.719-1.839 0-3.031 1.226-3.031 3.504v4.183h-1.344v-8.707h1.344v1.45c0.703-1.067 1.821-1.664 3.278-1.664 2.109 0 3.511 1.496 3.511 3.714"/>
  <path transform="scale(1.3333)" d="m29.504 1028.8h21.652l27.406 73.086 27.551-73.086h21.653v107.4h-14.172v-94.305l-27.696 73.66h-14.601l-27.695-73.66v94.305h-14.098zm195.44 63.805v6.477h-60.855c0.574 9.109 3.308 16.062 8.199 20.859 4.941 4.746 11.797 7.121 20.574 7.121 5.082 0 9.996-0.625 14.746-1.871 4.797-1.246 9.543-3.117 14.242-5.609v12.515c-4.746 2.016-9.613 3.551-14.601 4.606-4.988 1.054-10.047 1.582-15.18 1.582-12.851 0-23.043-3.742-30.57-11.223-7.481-7.48-11.223-17.601-11.223-30.355 0-13.188 3.547-23.645 10.645-31.364 7.148-7.769 16.762-11.652 28.847-11.652 10.836 0 19.399 3.5 25.68 10.5 6.332 6.953 9.496 16.426 9.496 28.414zm-13.238-3.883c-0.094-7.242-2.133-13.019-6.113-17.336-3.93-4.316-9.16-6.476-15.68-6.476-7.387 0-13.309 2.086-17.77 6.258-4.41 4.175-6.953 10.046-7.625 17.625zm48.055-55.965v22.875h27.261v10.286h-27.261v43.738c0 6.57 0.886 10.789 2.66 12.66 1.824 1.867 5.492 2.805 11.008 2.805h13.593v11.078h-13.593c-10.215 0-17.266-1.895-21.149-5.684-3.887-3.836-5.828-10.789-5.828-20.859v-43.738h-9.711v-10.286h9.711v-22.875zm81.285 62.942c-10.696 0-18.106 1.223-22.227 3.668-4.125 2.445-6.187 6.617-6.187 12.515 0 4.704 1.535 8.442 4.605 11.223 3.113 2.734 7.336 4.102 12.66 4.102 7.336 0 13.211-2.59 17.621-7.77 4.461-5.226 6.692-12.156 6.692-20.789v-2.949zm26.398-5.469v45.969h-13.234v-12.231c-3.024 4.891-6.785 8.512-11.293 10.864-4.508 2.3-10.024 3.453-16.547 3.453-8.246 0-14.816-2.301-19.711-6.906-4.84-4.653-7.262-10.864-7.262-18.633 0-9.063 3.02-15.895 9.063-20.5 6.09-4.602 15.152-6.907 27.191-6.907h18.559v-1.293c0-6.089-2.016-10.789-6.043-14.101-3.981-3.356-9.59-5.035-16.832-5.035-4.606 0-9.09 0.554-13.453 1.656-4.364 1.102-8.559 2.758-12.586 4.965v-12.231c4.844-1.871 9.543-3.261 14.097-4.171 4.555-0.961 8.993-1.438 13.309-1.438 11.652 0 20.355 3.02 26.109 9.063 5.758 6.042 8.633 15.203 8.633 27.476z"/>
  <path transform="scale(1.3333)" d="m479.52 1130.3c-5.082 2.637-10.382 4.625-15.898 5.969s-11.27 2.016-17.262 2.016c-17.89 0-32.058-4.989-42.515-14.965-10.453-10.02-15.68-23.594-15.68-40.711 0-17.172 5.227-30.742 15.68-40.715 10.457-10.023 24.625-15.035 42.515-15.035 5.992 0 11.746 0.672 17.262 2.012 5.516 1.343 10.816 3.336 15.898 5.972v22.227c-5.132-3.5-10.191-6.066-15.179-7.695-4.985-1.633-10.239-2.446-15.75-2.446-9.879 0-17.649 3.164-23.309 9.493-5.66 6.332-8.488 15.058-8.488 26.187 0 11.074 2.828 19.781 8.488 26.109 5.66 6.332 13.43 9.496 23.309 9.496 5.511 0 10.765-0.816 15.75-2.445 4.988-1.633 10.047-4.195 15.179-7.699zm21.797-74.668h25.75v80.567h-25.75zm0-31.363h25.75v21.004h-25.75zm130.92 71.43v7.336h-60.207c0.625 6.043 2.805 10.574 6.547 13.597 3.738 3.02 8.965 4.532 15.68 4.532 5.418 0 10.957-0.793 16.617-2.375 5.707-1.629 11.559-4.075 17.551-7.336v19.855c-6.09 2.301-12.18 4.028-18.27 5.176-6.09 1.199-12.179 1.801-18.273 1.801-14.578 0-25.918-3.692-34.024-11.078-8.054-7.434-12.086-17.84-12.086-31.219 0-13.141 3.957-23.477 11.872-31.004 7.96-7.531 18.894-11.293 32.8-11.293 12.66 0 22.782 3.813 30.356 11.438 7.625 7.625 11.437 17.812 11.437 30.57zm-26.468-8.559c0-4.894-1.442-8.824-4.317-11.797-2.832-3.023-6.547-4.535-11.152-4.535-4.985 0-9.039 1.418-12.156 4.246-3.118 2.782-5.059 6.809-5.825 12.086zm126.96 0v49.059h-25.894v-37.551c0-6.953-0.168-11.75-0.504-14.387-0.289-2.636-0.816-4.578-1.582-5.828-1.008-1.676-2.375-2.972-4.102-3.883-1.726-0.961-3.691-1.437-5.898-1.437-5.371 0-9.59 2.086-12.66 6.258-3.07 4.125-4.602 9.855-4.602 17.191v39.637h-25.754v-80.567h25.754v11.797c3.883-4.699 8.008-8.152 12.371-10.359 4.364-2.254 9.184-3.379 14.457-3.379 9.305 0 16.356 2.852 21.149 8.559 4.844 5.707 7.265 14.004 7.265 24.89zm88.985-28.992v21.008c-3.5-2.399-7.027-4.176-10.574-5.324-3.5-1.153-7.145-1.727-10.934-1.727-7.195 0-12.805 2.109-16.832 6.328-3.98 4.176-5.973 10.024-5.973 17.555 0 7.527 1.993 13.402 5.973 17.621 4.027 4.176 9.637 6.262 16.832 6.262 4.027 0 7.84-0.602 11.438-1.801 3.644-1.199 7-2.973 10.07-5.324v21.078c-4.027 1.488-8.129 2.59-12.301 3.308-4.125 0.77-8.273 1.153-12.445 1.153-14.531 0-25.895-3.719-34.098-11.153-8.199-7.48-12.301-17.863-12.301-31.144 0-13.285 4.102-23.645 12.301-31.078 8.203-7.481 19.567-11.219 34.098-11.219 4.219 0 8.367 0.383 12.445 1.148 4.125 0.719 8.223 1.825 12.301 3.309zm22.226-2.516h25.754v80.567h-25.754zm0-31.363h25.754v21.004h-25.754zm86.61 75.676c-5.371 0-9.422 0.91-12.156 2.73-2.688 1.825-4.028 4.508-4.028 8.059 0 3.262 1.078 5.824 3.235 7.695 2.207 1.825 5.253 2.735 9.136 2.735 4.844 0 8.918-1.727 12.231-5.18 3.308-3.5 4.961-7.863 4.961-13.09v-2.949zm39.347-9.715v45.969h-25.968v-11.942c-3.453 4.891-7.336 8.465-11.653 10.719-4.316 2.203-9.566 3.309-15.754 3.309-8.343 0-15.128-2.422-20.355-7.266-5.18-4.89-7.77-11.223-7.77-18.992 0-9.445 3.235-16.375 9.711-20.789 6.52-4.41 16.735-6.617 30.645-6.617h15.176v-2.012c0-4.078-1.606-7.051-4.821-8.922-3.211-1.918-8.222-2.879-15.031-2.879-5.516 0-10.648 0.555-15.394 1.656-4.75 1.102-9.161 2.758-13.239 4.965v-19.64c5.516-1.34 11.055-2.348 16.617-3.02 5.563-0.719 11.126-1.078 16.692-1.078 14.527 0 25.008 2.875 31.434 8.629 6.472 5.707 9.71 15.012 9.71 27.91z"/>
 </g>
 <g fill="none" stroke="#0b3312" stroke-miterlimit="10" stroke-width="2.6826">
  <path transform="scale(1.3333 -1.3333)" d="m116.43-1200.5h722.95"/>
  <path transform="scale(1.3333 -1.3333)" d="m116.43-1370h722.95"/>
 </g>
 <g fill="#fff">
  <path transform="scale(1.3333)" d="m284.76 1404.5h18.015v3.571h-13.773v9.238h12.43v3.57h-12.43v14.969h-4.242zm36.105 19.528c-3.121 0-5.285 0.355-6.488 1.07s-1.805 1.934-1.805 3.656c0 1.371 0.45 2.461 1.344 3.274 0.91 0.797 2.141 1.199 3.695 1.199 2.141 0 3.856-0.758 5.145-2.27 1.301-1.527 1.953-3.546 1.953-6.07v-0.859zm7.707-1.594v13.414h-3.863v-3.566c-0.883 1.425-1.98 2.484-3.297 3.168-1.316 0.672-2.926 1.007-4.828 1.007-2.41 0-4.328-0.671-5.754-2.015-1.414-1.356-2.121-3.168-2.121-5.438 0-2.644 0.883-4.64 2.645-5.984 1.777-1.344 4.425-2.016 7.937-2.016h5.418v-0.379c0-1.777-0.586-3.148-1.766-4.113-1.16-0.98-2.796-1.473-4.91-1.473-1.343 0-2.652 0.165-3.929 0.485-1.274 0.32-2.497 0.805-3.672 1.449v-3.57c1.414-0.547 2.785-0.953 4.113-1.219 1.332-0.277 2.625-0.418 3.887-0.418 3.402 0 5.941 0.883 7.621 2.645 1.679 1.765 2.519 4.437 2.519 8.023zm23-9.199v3.613c-1.093-0.601-2.191-1.051-3.297-1.344-1.093-0.308-2.199-0.465-3.316-0.465-2.508 0-4.453 0.801-5.84 2.395-1.383 1.582-2.078 3.809-2.078 6.68 0 2.867 0.695 5.101 2.078 6.695 1.387 1.582 3.332 2.375 5.84 2.375 1.117 0 2.223-0.148 3.316-0.441 1.106-0.309 2.204-0.762 3.297-1.364v3.567c-1.078 0.504-2.199 0.883-3.359 1.136-1.149 0.25-2.375 0.375-3.676 0.375-3.539 0-6.355-1.109-8.441-3.335-2.086-2.227-3.129-5.231-3.129-9.008 0-3.836 1.051-6.856 3.152-9.051 2.113-2.199 5.004-3.297 8.672-3.297 1.188 0 2.352 0.125 3.484 0.379 1.133 0.234 2.235 0.602 3.297 1.09zm5.813 13.336v-14.239h3.863v14.09c0 2.227 0.434 3.899 1.301 5.02 0.871 1.105 2.172 1.656 3.906 1.656 2.086 0 3.731-0.664 4.938-1.992 1.214-1.332 1.824-3.145 1.824-5.441v-13.333h3.863v23.516h-3.863v-3.609c-0.938 1.426-2.027 2.492-3.274 3.191-1.234 0.688-2.668 1.027-4.304 1.027-2.703 0-4.754-0.839-6.153-2.519-1.402-1.68-2.101-4.137-2.101-7.367zm26.375-23.395h3.863v32.672h-3.863zm15.855 2.481v6.675h7.961v3.004h-7.961v12.766c0 1.918 0.262 3.148 0.778 3.695 0.535 0.547 1.605 0.821 3.214 0.821h3.969v3.23h-3.969c-2.984 0-5.039-0.551-6.175-1.656-1.133-1.121-1.7-3.153-1.7-6.09v-12.766h-2.835v-3.004h2.835v-6.675zm25.535 18.371c-3.121 0-5.285 0.355-6.488 1.07s-1.805 1.934-1.805 3.656c0 1.371 0.45 2.461 1.344 3.274 0.91 0.797 2.141 1.199 3.696 1.199 2.14 0 3.855-0.758 5.144-2.27 1.301-1.527 1.953-3.546 1.953-6.07v-0.859zm7.707-1.594v13.414h-3.863v-3.566c-0.883 1.425-1.98 2.484-3.297 3.168-1.316 0.672-2.925 1.007-4.828 1.007-2.41 0-4.328-0.671-5.754-2.015-1.414-1.356-2.121-3.168-2.121-5.438 0-2.644 0.883-4.64 2.645-5.984 1.777-1.344 4.425-2.016 7.937-2.016h5.418v-0.379c0-1.777-0.59-3.148-1.765-4.113-1.161-0.98-2.797-1.473-4.911-1.473-1.343 0-2.656 0.165-3.929 0.485-1.274 0.32-2.496 0.805-3.672 1.449v-3.57c1.414-0.547 2.785-0.953 4.113-1.219 1.332-0.277 2.625-0.418 3.887-0.418 3.402 0 5.941 0.883 7.621 2.645 1.68 1.765 2.519 4.437 2.519 8.023zm21.551-6.531v-12.727h3.864v32.672h-3.864v-3.527c-0.812 1.402-1.84 2.445-3.086 3.129-1.234 0.672-2.715 1.007-4.453 1.007-2.84 0-5.156-1.132-6.949-3.398-1.777-2.27-2.668-5.25-2.668-8.945 0-3.699 0.891-6.68 2.668-8.946 1.793-2.269 4.109-3.402 6.949-3.402 1.738 0 3.219 0.344 4.453 1.027 1.246 0.672 2.274 1.707 3.086 3.11zm-13.164 8.211c0 2.84 0.578 5.074 1.742 6.695 1.176 1.609 2.786 2.418 4.828 2.418 2.043 0 3.653-0.809 4.829-2.418 1.179-1.621 1.765-3.855 1.765-6.695 0-2.844-0.586-5.071-1.765-6.68-1.176-1.625-2.786-2.434-4.829-2.434-2.042 0-3.652 0.809-4.828 2.434-1.164 1.609-1.742 3.836-1.742 6.68zm51.309-8.211v-12.727h3.863v32.672h-3.863v-3.527c-0.813 1.402-1.84 2.445-3.086 3.129-1.231 0.672-2.715 1.007-4.453 1.007-2.84 0-5.157-1.132-6.95-3.398-1.777-2.27-2.667-5.25-2.667-8.945 0-3.699 0.89-6.68 2.667-8.946 1.793-2.269 4.11-3.402 6.95-3.402 1.738 0 3.222 0.344 4.453 1.027 1.246 0.672 2.273 1.707 3.086 3.11zm-13.164 8.211c0 2.84 0.578 5.074 1.742 6.695 1.176 1.609 2.785 2.418 4.828 2.418s3.652-0.809 4.832-2.418c1.176-1.621 1.762-3.855 1.762-6.695 0-2.844-0.586-5.071-1.762-6.68-1.18-1.625-2.789-2.434-4.832-2.434s-3.652 0.809-4.828 2.434c-1.164 1.609-1.742 3.836-1.742 6.68zm45.07-0.989v1.891h-17.766c0.168 2.66 0.965 4.688 2.395 6.09 1.441 1.383 3.441 2.078 6.004 2.078 1.484 0 2.918-0.184 4.305-0.547 1.402-0.363 2.785-0.91 4.16-1.637v3.653c-1.387 0.59-2.809 1.035-4.266 1.344-1.453 0.308-2.93 0.46-4.43 0.46-3.75 0-6.726-1.089-8.921-3.273-2.184-2.184-3.278-5.137-3.278-8.863 0-3.848 1.035-6.903 3.11-9.153 2.085-2.269 4.89-3.402 8.418-3.402 3.164 0 5.664 1.02 7.496 3.066 1.847 2.028 2.773 4.793 2.773 8.293zm-3.863-1.132c-0.032-2.114-0.625-3.801-1.785-5.063-1.149-1.258-2.676-1.891-4.579-1.891-2.156 0-3.886 0.61-5.187 1.829-1.289 1.218-2.027 2.933-2.227 5.144zm24.711-14.008v11.781h5.332c1.972 0 3.5-0.512 4.578-1.535 1.078-1.02 1.617-2.477 1.617-4.367 0-1.875-0.539-3.325-1.617-4.344-1.078-1.023-2.606-1.535-4.578-1.535zm-4.243-3.485h9.575c3.511 0 6.168 0.797 7.957 2.395 1.808 1.582 2.711 3.906 2.711 6.969 0 3.093-0.903 5.433-2.711 7.015-1.789 1.582-4.446 2.371-7.957 2.371h-5.332v12.598h-4.243zm41.055 8.524v3.656c-1.09-0.562-2.222-0.98-3.398-1.262-1.176-0.281-2.395-0.418-3.657-0.418-1.917 0-3.359 0.293-4.324 0.879-0.953 0.59-1.429 1.473-1.429 2.649 0 0.894 0.343 1.601 1.031 2.121 0.683 0.504 2.062 0.984 4.137 1.449l1.32 0.293c2.746 0.586 4.691 1.422 5.84 2.5 1.16 1.063 1.742 2.555 1.742 4.473 0 2.183-0.867 3.91-2.606 5.183-1.718 1.274-4.093 1.914-7.117 1.914-1.258 0-2.574-0.129-3.949-0.379-1.355-0.238-2.789-0.601-4.305-1.093v-3.989c1.43 0.743 2.836 1.301 4.223 1.68 1.387 0.363 2.758 0.547 4.117 0.547 1.817 0 3.219-0.309 4.199-0.926 0.981-0.629 1.469-1.512 1.469-2.644 0-1.051-0.355-1.856-1.07-2.414-0.699-0.563-2.246-1.102-4.641-1.618l-1.344-0.316c-2.394-0.504-4.125-1.273-5.187-2.309-1.063-1.05-1.594-2.484-1.594-4.304 0-2.211 0.781-3.922 2.352-5.125 1.566-1.203 3.793-1.805 6.676-1.805 1.425 0 2.773 0.106 4.031 0.316 1.262 0.207 2.422 0.524 3.484 0.942zm6.899-0.692h3.863v23.52h-3.863zm0-9.156h3.863v4.895h-3.863zm30.382 10.059v3.613c-1.089-0.601-2.187-1.051-3.296-1.344-1.09-0.308-2.196-0.461-3.317-0.461-2.504 0-4.453 0.797-5.836 2.391-1.387 1.582-2.078 3.809-2.078 6.68 0 2.867 0.691 5.101 2.078 6.699 1.383 1.578 3.332 2.371 5.836 2.371 1.121 0 2.227-0.148 3.317-0.441 1.109-0.309 2.207-0.762 3.296-1.364v3.567c-1.078 0.504-2.195 0.883-3.359 1.136-1.148 0.25-2.371 0.379-3.672 0.379-3.543 0-6.355-1.113-8.441-3.339-2.086-2.227-3.129-5.231-3.129-9.008 0-3.836 1.047-6.852 3.148-9.051 2.114-2.199 5.004-3.297 8.672-3.297 1.192 0 2.352 0.125 3.485 0.379 1.136 0.238 2.234 0.602 3.296 1.09zm15.329 1.804c-2.075 0-3.711 0.813-4.915 2.438-1.207 1.609-1.808 3.82-1.808 6.637 0 2.812 0.598 5.031 1.785 6.656 1.207 1.609 2.852 2.414 4.938 2.414 2.054 0 3.687-0.812 4.89-2.437 1.203-1.622 1.805-3.836 1.805-6.633 0-2.789-0.602-4.992-1.805-6.617-1.203-1.637-2.836-2.458-4.89-2.458zm0-3.273c3.359 0 5.996 1.09 7.914 3.273 1.918 2.184 2.879 5.211 2.879 9.075 0 3.847-0.961 6.871-2.879 9.07-1.918 2.184-4.555 3.273-7.914 3.273-3.375 0-6.02-1.089-7.938-3.273-1.906-2.199-2.855-5.223-2.855-9.07 0-3.864 0.949-6.891 2.855-9.075 1.918-2.183 4.563-3.273 7.938-3.273zm17.546-8.59h3.864v32.676h-3.864zm21.372 11.863c-2.075 0-3.711 0.813-4.915 2.438-1.203 1.609-1.804 3.82-1.804 6.637 0 2.812 0.594 5.031 1.781 6.656 1.207 1.609 2.852 2.414 4.938 2.414 2.058 0 3.687-0.812 4.89-2.437 1.203-1.622 1.809-3.836 1.809-6.633 0-2.789-0.606-4.992-1.809-6.617-1.203-1.637-2.832-2.458-4.89-2.458zm0-3.273c3.359 0 5.996 1.09 7.914 3.273 1.918 2.184 2.879 5.211 2.879 9.075 0 3.847-0.961 6.871-2.879 9.07-1.918 2.184-4.555 3.273-7.914 3.273-3.375 0-6.02-1.089-7.938-3.273-1.906-2.199-2.855-5.223-2.855-9.07 0-3.864 0.949-6.891 2.855-9.075 1.918-2.183 4.563-3.273 7.938-3.273zm33.023 12.051c0-2.797-0.582-4.969-1.742-6.508-1.149-1.539-2.766-2.309-4.852-2.309-2.07 0-3.687 0.77-4.847 2.309-1.149 1.539-1.723 3.711-1.723 6.508 0 2.789 0.574 4.949 1.723 6.488 1.16 1.543 2.777 2.313 4.847 2.313 2.086 0 3.703-0.77 4.852-2.313 1.16-1.539 1.742-3.699 1.742-6.488zm3.863 9.113c0 4.004-0.886 6.981-2.664 8.926-1.781 1.961-4.504 2.941-8.172 2.941-1.355 0-2.636-0.105-3.84-0.316-1.203-0.195-2.375-0.504-3.507-0.926v-3.758c1.132 0.618 2.254 1.071 3.359 1.368 1.105 0.292 2.234 0.437 3.383 0.437 2.531 0 4.43-0.664 5.687-1.992 1.262-1.317 1.891-3.313 1.891-5.985v-1.91c-0.797 1.383-1.82 2.422-3.066 3.106-1.247 0.687-2.735 1.031-4.473 1.031-2.883 0-5.207-1.102-6.969-3.297-1.765-2.199-2.648-5.109-2.648-8.738 0-3.637 0.883-6.559 2.648-8.754 1.762-2.199 4.086-3.297 6.969-3.297 1.738 0 3.226 0.344 4.473 1.027 1.246 0.688 2.269 1.723 3.066 3.11v-3.571h3.863zm12.778-31.476h4.179l-6.847 7.898h-3.211zm-4.852 10.878h3.863v23.52h-3.863zm23.246 11.696c-3.121 0-5.285 0.359-6.488 1.07-1.203 0.715-1.805 1.934-1.805 3.656 0 1.371 0.445 2.461 1.344 3.274 0.91 0.801 2.141 1.199 3.695 1.199 2.141 0 3.856-0.758 5.145-2.27 1.301-1.523 1.953-3.546 1.953-6.066v-0.863zm7.707-1.594v13.418h-3.863v-3.57c-0.883 1.425-1.981 2.484-3.297 3.172-1.316 0.671-2.926 1.007-4.832 1.007-2.406 0-4.324-0.672-5.754-2.019-1.414-1.356-2.121-3.168-2.121-5.438 0-2.644 0.883-4.64 2.648-5.984 1.778-1.344 4.422-2.016 7.938-2.016h5.418v-0.379c0-1.777-0.59-3.148-1.766-4.113-1.16-0.98-2.801-1.469-4.914-1.469-1.344 0-2.652 0.161-3.926 0.481-1.273 0.324-2.5 0.805-3.675 1.449v-3.57c1.414-0.547 2.785-0.949 4.117-1.219 1.328-0.277 2.625-0.418 3.883-0.418 3.402 0 5.945 0.883 7.625 2.645 1.679 1.765 2.519 4.437 2.519 8.023z"/>
  <path transform="scale(1.3333)" d="m484.12 1306.4v-22.32h6.215c1.676 0 3.148 0.188 4.359 0.445 1.223 0.297 2.309 0.727 3.168 1.329 1.438 0.96 2.559 2.308 3.375 3.953 0.836 1.644 1.215 3.465 1.215 5.453 0 1.953-0.379 3.762-1.215 5.465-0.816 1.644-1.937 2.949-3.375 3.949-0.859 0.598-1.945 1.031-3.168 1.336-1.211 0.258-2.683 0.39-4.359 0.39zm11.707 1.247c1.449-0.387 2.688-0.985 3.766-1.817 1.621-1.215 2.859-2.723 3.765-4.586 0.918-1.863 1.352-3.91 1.352-6.023 0-2.125-0.434-4.125-1.352-6.028-0.906-1.859-2.144-3.375-3.765-4.586-1.078-0.828-2.317-1.433-3.723-1.816-1.391-0.344-3.035-0.566-5.027-0.566h-8.875v26.027h8.875c1.953 0 3.605-0.215 4.984-0.605m-37.223-9.747 4.739-11.257 4.675 11.257zm4.301-14.687-10.703 25.039h2.078l3.645-8.656h10.769l3.66 8.656h2.079l-10.704-25.039zm-35.176 23.187v-22.32h6.196c1.679 0 3.148 0.188 4.359 0.445 1.234 0.297 2.305 0.727 3.172 1.329 1.437 0.96 2.555 2.308 3.394 3.953 0.809 1.644 1.196 3.465 1.196 5.453 0 1.953-0.387 3.762-1.196 5.465-0.839 1.644-1.957 2.949-3.394 3.949-0.867 0.598-1.938 1.031-3.172 1.336-1.211 0.258-2.68 0.39-4.359 0.39zm11.692 1.247c1.429-0.387 2.64-0.985 3.777-1.817 1.606-1.215 2.848-2.723 3.766-4.586 0.906-1.863 1.332-3.91 1.332-6.023 0-2.125-0.426-4.125-1.332-6.028-0.918-1.859-2.16-3.375-3.766-4.586-1.137-0.828-2.348-1.433-3.746-1.816-1.371-0.344-3.016-0.566-5.008-0.566h-8.922v26.027h8.922c1.946 0 3.586-0.215 4.977-0.605m-23.528-25.422h-2.191v26.031h2.191zm-10.488 19.269c0-0.859-0.156-1.676-0.414-2.472-0.312-0.77-0.73-1.469-1.266-2.067-0.824-0.914-2.433-1.859-4.765-2.816-0.258-0.129-0.426-0.184-0.551-0.274-2.133-0.902-3.512-1.675-4.125-2.414-0.648-0.683-0.957-1.644-0.957-2.773 0-1.395 0.465-2.559 1.469-3.512 0.996-0.898 2.254-1.387 3.804-1.387 0.954 0 1.922 0.172 2.868 0.516 1.011 0.348 2 0.922 3.078 1.652v-2.332c-0.992-0.57-1.946-1-2.899-1.304-0.957-0.247-1.945-0.438-2.945-0.438-2.219 0-3.992 0.652-5.375 1.949-1.394 1.301-2.078 2.953-2.078 4.934 0 1.648 0.43 3 1.348 4.043 0.906 1.035 2.589 2.078 5.066 3.101 2.383 1.012 3.898 1.872 4.555 2.61 0.683 0.781 0.98 1.738 0.98 2.91 0 1.602-0.461 2.848-1.469 3.797-0.941 0.914-2.293 1.394-3.98 1.394-0.996 0-2.09-0.261-3.125-0.699-1.121-0.461-2.25-1.16-3.461-2.121v2.512c1.129 0.793 2.207 1.344 3.297 1.734 1.113 0.379 2.207 0.563 3.332 0.563 2.223 0 4.023-0.633 5.461-1.989 1.426-1.339 2.152-3.035 2.152-5.117m-36.89-17.488h4.324c1.941 0 3.418 0.383 4.504 1.246 1.035 0.832 1.55 1.996 1.55 3.504 0 1.094-0.207 2.035-0.679 2.789-0.481 0.781-1.18 1.336-2.133 1.754-0.512 0.226-1.125 0.402-1.898 0.535-0.801 0.074-2.141 0.121-4.067 0.121h-1.601zm0 11.73h2.089c1.493 0 2.594 0.129 3.317 0.305 0.742 0.164 1.34 0.527 1.828 0.996 0.332 0.348 0.769 0.914 1.371 1.738 0.57 0.778 1.301 1.813 2.082 3.082l4.117 6.395h2.332l-7.101-10.949c-0.301-0.477-0.657-0.918-0.989-1.262-0.39-0.348-0.832-0.648-1.304-0.945 1.636-0.528 2.871-1.313 3.683-2.395 0.828-1.043 1.211-2.383 1.211-3.945 0-2.113-0.695-3.719-2.156-4.844-1.492-1.121-3.559-1.687-6.281-1.687h-6.246v26.027h2.047zm-11.231 10.739h-12.176v-10.575h11.477v-1.668h-11.477v-10.32h11.879v-1.687h-13.957v26.027h14.254zm-31.359 2.215 10.922-26.465h-2.211l-8.887 21.839-8.781-21.839h-2.309l10.953 26.465zm-20.926-0.438h2.211v-26.027h-2.211zm-30.41-23.383 19.054 23h1.911v-25.996h-2.047v22.649l-18.84-22.649h-2.156v25.996h2.078zm-23.535 25.688c3.726 0 6.683-1.18 8.863-3.508 2.144-2.34 3.277-5.508 3.277-9.449v-17.203h-2.48v17.335c0 3.157-0.867 5.672-2.578 7.54-1.786 1.859-4.129 2.82-7.082 2.82-2.942 0-5.286-0.961-7.016-2.82-1.773-1.868-2.648-4.383-2.648-7.54v-17.335h-2.368v17.203c0 3.984 1.071 7.152 3.243 9.449 2.168 2.328 5.113 3.508 8.789 3.508m416.14-17.418c-0.73 1.699-1.723 3.215-3.074 4.523-1.383 1.336-2.949 2.387-4.633 3.024-1.777 0.683-3.598 1.043-5.594 1.043-1.945 0-3.765-0.36-5.55-1.043-1.766-0.735-3.286-1.739-4.614-3.024-1.351-1.308-2.394-2.824-3.086-4.523-0.738-1.676-1.082-3.418-1.082-5.317 0-1.859 0.344-3.644 1.082-5.379 0.743-1.687 1.735-3.156 3.086-4.461 1.41-1.304 2.989-2.335 4.742-3.07 1.735-0.703 3.559-1.047 5.422-1.047 1.957 0 3.77 0.344 5.5 1.047 1.743 0.688 3.293 1.727 4.649 3.07 1.429 1.387 2.465 2.903 3.195 4.59 0.688 1.645 1.035 3.391 1.035 5.25 0 1.899-0.347 3.641-1.078 5.317m2.692-20.449c-2.125-2.02-4.551-3.536-7.274-4.626-2.781-1.039-5.668-1.597-8.719-1.597-2.984 0-5.832 0.558-8.57 1.597-2.73 1.04-5.203 2.606-7.316 4.626-2.125 1.957-3.77 4.257-4.946 6.863-1.125 2.59-1.726 5.32-1.726 8.09 0 2.906 0.558 5.718 1.683 8.324 1.121 2.594 2.778 4.937 4.989 7.012 2.07 1.953 4.5 3.519 7.273 4.589 2.727 1.043 5.629 1.598 8.613 1.598 3.051 0 5.938-0.516 8.668-1.555 2.739-1.07 5.153-2.589 7.368-4.632 2.128-1.993 3.73-4.301 4.898-6.84 1.133-2.598 1.684-5.332 1.684-8.157 0-2.976-0.551-5.753-1.645-8.3-1.137-2.61-2.809-4.953-4.98-6.992m134.94 28.781v-10.281h19.758v-7.18h-19.758v-9.875h20.371v-7.149h-28.719v41.625h29.375v-7.14zm-21.012-8.93c-0.035 2.68-0.89 4.676-2.812 6.266-1.852 1.57-4.371 2.449-7.664 2.449-1.949 0-3.629-0.352-5.067-0.957-1.476-0.609-2.726-1.567-3.82-2.817-0.539-0.652-0.949-1.425-1.152-2.343-0.254-0.903-0.399-2.641-0.399-5.157v-23.179h-7.758v23.406c0 3.199 0.219 5.582 0.704 7.273 0.472 1.657 1.242 3.168 2.371 4.5 1.785 2.215 3.949 3.856 6.543 5.02 2.566 1.129 5.457 1.699 8.578 1.699 5.269 0 9.703-1.469 13.086-4.414 3.429-2.918 5.16-6.89 5.097-11.574v-25.91h-7.707zm-41.355 0.57c-0.742 1.727-1.738 3.286-3.082 4.586l-0.047 0.039c-1.383 1.442-2.949 2.465-4.633 3.207-1.738 0.696-3.547 1.071-5.453 1.071-1.91 0-3.699-0.375-5.469-1.11-1.773-0.777-3.289-1.816-4.644-3.168v-0.039c-1.332-1.3-2.36-2.859-3.055-4.586-0.75-1.742-1.086-3.55-1.086-5.468 0-1.942 0.336-3.766 1.086-5.532 0.695-1.738 1.723-3.254 3.031-4.57 1.426-1.383 2.973-2.414 4.723-3.148 1.777-0.746 3.551-1.082 5.414-1.082 1.906 0 3.715 0.336 5.453 1.082 1.727 0.687 3.25 1.73 4.609 3.109 1.415 1.438 2.446 2.984 3.153 4.727 0.73 1.687 1.074 3.472 1.074 5.414 0 1.918-0.344 3.726-1.074 5.468m4.586 8.657c3.129-3.731 4.687-8.133 4.687-13.114 0-3.043-0.578-5.91-1.656-8.554-1.117-2.598-2.77-4.973-4.941-7.094-2.075-2.035-4.508-3.649-7.231-4.727-2.777-1.082-5.621-1.636-8.66-1.636-2.992 0-5.855 0.554-8.574 1.636-2.699 1.078-5.125 2.645-7.297 4.727-2.07 2.031-3.719 4.371-4.828 7.012-1.188 2.691-1.754 5.406-1.754 8.242 0 5.148 1.57 9.734 4.652 13.605 3.024 3.844 7.082 6.399 12.031 7.649 3.692 2.613 7.153 4.605 10.438 5.976 3.394 1.434 6.477 2.125 9.277 2.125h0.821c0.265 0 0.476-0.023 0.683-0.066l0.332-0.047 6.172-5.422-0.469-1.305-0.339-0.816-0.813 0.176c-0.805 0.172-1.48 0.258-2.141 0.328-0.613 0.109-1.164 0.109-1.703 0.109-1.593 0-3.273-0.234-5.05-0.656-1.09-0.312-2.344-0.75-3.672-1.266 4.058-1.507 7.476-3.765 10.035-6.882m-52.426-17.629-0.895-0.489c-2.386-1.382-4.128-2.64-5.253-3.722-0.571-0.559-0.95-1.031-1.165-1.457-0.273-0.43-0.343-0.746-0.343-1 0.035-1.047 0.371-1.75 1.332-2.434 0.961-0.695 2.211-1.078 3.902-1.078 1.438 0 2.824 0.25 4.238 0.816 1.442 0.61 3.039 1.524 4.774 2.872l1.68 1.25v-8.973l-0.504-0.309c-1.645-0.898-3.297-1.593-4.95-2.066-1.644-0.438-3.285-0.703-4.988-0.703-3.746 0-6.965 1.051-9.473 3.129-2.472 2.074-3.769 4.89-3.769 8.132 0 2.352 0.652 4.426 1.988 6.157 0.742 0.918 1.828 1.863 3.301 2.945 1.512 1.141 3.453 2.387 5.801 3.832 1.48 0.84 2.664 1.633 3.59 2.285 0.921 0.653 1.566 1.211 1.879 1.555 0.632 0.777 0.882 1.555 0.945 2.601-0.063 1.25-0.445 2.036-1.391 2.766-0.91 0.695-2.297 1.121-4.195 1.121-1.777 0-3.426-0.383-4.992-1.199-1.539-0.789-3.242-2.176-5.067-4.066l-1.816-1.973v10.414l0.445 0.293c1.719 1.344 3.528 2.344 5.453 2.945 1.938 0.676 4.063 0.969 6.348 0.969 3.77 0 6.984-1.051 9.461-3.121 2.5-2.086 3.801-4.863 3.801-8.067 0-2.726-0.645-5.117-2.028-7.062-1.386-1.988-4.07-4.031-8.109-6.363m-75.895 15.515c-1.074 0.825-3.07 1.387-5.972 1.332h-7.215v-11.265h6.203c3.258 0 5.508 0.558 6.75 1.469 1.234 0.933 1.883 2.171 1.883 4.296 0 2.078-0.555 3.321-1.649 4.168m-13.187-28.418h4.871c2.555 0 4.231 0.461 5.148 1.207 0.45 0.395 0.778 0.813 1.043 1.469 0.215 0.61 0.348 1.395 0.348 2.34 0 2.086-0.613 3.383-1.867 4.332-1.207 0.902-3.34 1.477-6.402 1.477h-3.141zm15.391 13.371c1.125-0.73 2.128-1.562 2.859-2.601 1.23-1.672 1.769-3.758 1.769-6.141 0-3.816-1.292-6.949-3.89-9.093-2.598-2.172-6.149-3.157-10.613-3.157h-13.747v45.086h16.098c4.633 0 8.426-1.133 11.305-3.426 2.855-2.296 4.383-5.492 4.332-9.359 0-2.992-0.973-5.637-2.817-7.746-1.398-1.559-3.168-2.746-5.296-3.563m-59.211-17.835h-8.36v41.929h29.36v-7.148h-21zm-33.664 23.003h19.629v-7.632h-19.629v-10.961h20.187v-7.528h-28.512v45.047h29.164v-7.625h-20.839z"/>
  <path transform="scale(1.3333)" d="m172.89 1350.4c-9.575-23.246-12.942-47.313-12.942-72.141 0-10.699 0.68-21.426 2.465-31.98h9.137c-2.207 10.039-2.895 20.336-2.895 30.59 0 21.546 2.672 44.457 8.906 65.214 6.235-20.757 8.911-43.668 8.911-65.214 0-10.254-0.684-20.551-2.891-30.59h9.133c1.785 10.554 2.469 21.281 2.469 31.98 0 24.828-3.372 48.895-12.946 72.141z"/>
  <path transform="scale(1.3333)" d="m209.01 1277c0.828-0.75 2.105-0.692 2.859 0.137 0.758 0.828 0.695 2.109-0.129 2.863-0.828 0.754-2.109 0.695-2.867-0.137-0.75-0.824-0.691-2.105 0.137-2.863"/>
  <path transform="scale(1.3333)" d="m215.62 1284.3c0.828-0.75 2.109-0.692 2.863 0.136 0.758 0.828 0.696 2.11-0.133 2.864-0.828 0.753-2.105 0.695-2.863-0.133-0.75-0.832-0.691-2.11 0.133-2.867"/>
  <path transform="scale(1.3333)" d="m207.34 1304.3c0.867-0.711 2.141-0.586 2.855 0.281 0.711 0.867 0.586 2.14-0.277 2.855-0.867 0.711-2.141 0.582-2.855-0.281-0.707-0.867-0.586-2.141 0.277-2.855"/>
  <path transform="scale(1.3333)" d="m213.73 1312.3c0.871-0.699 2.148-0.555 2.847 0.324 0.696 0.875 0.551 2.149-0.32 2.848-0.879 0.699-2.152 0.554-2.852-0.324-0.695-0.875-0.55-2.149 0.325-2.848"/>
  <path transform="scale(1.3333)" d="m212.74 1296.1c0.828-0.75 2.106-0.692 2.86 0.14 0.757 0.828 0.695 2.106-0.129 2.864-0.832 0.753-2.11 0.691-2.867-0.137-0.75-0.828-0.692-2.11 0.136-2.867"/>
  <path transform="scale(1.3333)" d="m203.99 1333.6c0.93-0.621 2.188-0.371 2.813 0.559 0.621 0.933 0.375 2.191-0.559 2.812s-2.187 0.375-2.808-0.558c-0.626-0.93-0.376-2.192 0.554-2.813"/>
  <path transform="scale(1.3333)" d="m207.41 1325c0.91-0.644 2.176-0.429 2.824 0.481 0.649 0.914 0.434 2.18-0.476 2.828-0.914 0.648-2.18 0.434-2.828-0.481-0.645-0.91-0.434-2.179 0.48-2.828"/>
  <path transform="scale(1.3333)" d="m218.29 1264.2c0.488-1.004 1.699-1.425 2.707-0.937 1.008 0.492 1.43 1.703 0.942 2.711-0.489 1.008-1.704 1.426-2.711 0.937-1.004-0.488-1.426-1.703-0.938-2.711"/>
  <path transform="scale(1.3333)" d="m221.02 1255.5c0.059-1.117 1.008-1.976 2.129-1.922 1.118 0.055 1.981 1 1.926 2.122-0.055 1.121-1.004 1.98-2.129 1.925-1.113-0.058-1.976-1.007-1.926-2.125"/>
  <path transform="scale(1.3333)" d="m220.04 1246.1c-0.207-1.098 0.516-2.157 1.617-2.368 1.102-0.207 2.16 0.516 2.371 1.614 0.207 1.101-0.515 2.16-1.617 2.367-1.101 0.207-2.16-0.512-2.371-1.613"/>
  <path transform="scale(1.3333)" d="m214.18 1236.7c-0.563-0.965-0.239-2.203 0.73-2.773 0.965-0.567 2.207-0.243 2.774 0.726 0.566 0.965 0.238 2.203-0.727 2.774-0.969 0.562-2.207 0.238-2.777-0.727"/>
  <path transform="scale(1.3333)" d="m212.2 1270.1c0.828-0.754 2.109-0.692 2.863 0.137 0.758 0.828 0.696 2.109-0.132 2.863-0.829 0.754-2.106 0.695-2.864-0.137-0.75-0.828-0.691-2.105 0.133-2.863"/>
  <path transform="scale(1.3333)" d="m207.04 1238.9c-0.707 0.645-1.801 0.594-2.441-0.113-0.645-0.707-0.59-1.797 0.113-2.438 0.703-0.64 1.797-0.594 2.438 0.114 0.644 0.699 0.589 1.792-0.11 2.437m-5.672-8.008c-2.636-0.285-4.078 0.492-4.812 1.16-1.461 1.332-1.547 3.34-0.231 5.059l13.364 17.844c1.433 1.879 1.476 4.472-0.282 6.074l-12.836 11.726c-1.757 1.602-1.878 4.321-0.281 6.079l8.84 9.687c0.801 0.875 0.734 2.231-0.137 3.027l-9.695 8.829c-1.758 1.601-1.883 4.32-0.281 6.078l7.742 9.058c0.738 0.926 0.59 2.274-0.336 3.012l-11.578 8.164c-1.867 1.465-2.195 4.164-0.727 6.035l8.742 12.25c1.383 1.93 4.067 2.371 5.997 0.992 1.933-1.386 2.378-4.074 0.992-6l-4.992-7.468c-0.735-0.934-0.571-2.278 0.363-3.012l11.597-8.27c1.852-1.488 2.153-4.191 0.668-6.046l-7.777-9.75c-0.797-0.872-0.734-2.227 0.141-3.024l9.691-8.836c1.754-1.601 1.879-4.32 0.277-6.078l-8.832-9.687c-0.8-0.872-0.734-2.227 0.141-3.028l9.664-8.824c1.258-1.145 3.547-3.453 4.246-9.871 1.391-12.777-7.07-23.824-19.668-25.18"/>
  <path transform="scale(1.3333)" d="m146.05 1277c-0.832-0.75-2.11-0.692-2.863 0.137-0.758 0.828-0.696 2.109 0.128 2.863 0.832 0.754 2.11 0.695 2.868-0.137 0.75-0.824 0.691-2.105-0.133-2.863"/>
  <path transform="scale(1.3333)" d="m139.51 1284.3c-0.828-0.75-2.106-0.692-2.86 0.136-0.757 0.828-0.695 2.11 0.129 2.864 0.832 0.753 2.11 0.695 2.868-0.133 0.75-0.832 0.691-2.11-0.137-2.867"/>
  <path transform="scale(1.3333)" d="m147.72 1304.3c-0.868-0.711-2.141-0.586-2.856 0.281-0.711 0.867-0.586 2.14 0.281 2.855 0.864 0.711 2.141 0.582 2.852-0.281 0.707-0.867 0.586-2.141-0.277-2.855"/>
  <path transform="scale(1.3333)" d="m141.34 1312.3c-0.875-0.699-2.148-0.555-2.852 0.324-0.695 0.875-0.55 2.149 0.325 2.848s2.148 0.554 2.847-0.324c0.696-0.875 0.551-2.149-0.32-2.848"/>
  <path transform="scale(1.3333)" d="m142.32 1296.1c-0.832-0.75-2.109-0.692-2.863 0.14-0.758 0.828-0.695 2.106 0.133 2.864 0.828 0.753 2.105 0.691 2.863-0.137 0.75-0.828 0.691-2.11-0.133-2.867"/>
  <path transform="scale(1.3333)" d="m151.07 1333.6c-0.929-0.621-2.187-0.371-2.808 0.559-0.625 0.933-0.379 2.191 0.554 2.812 0.934 0.621 2.188 0.375 2.809-0.558 0.625-0.93 0.375-2.192-0.555-2.813"/>
  <path transform="scale(1.3333)" d="m147.64 1325c-0.911-0.644-2.176-0.429-2.825 0.481-0.648 0.914-0.433 2.18 0.477 2.828 0.918 0.648 2.18 0.434 2.828-0.481 0.645-0.91 0.434-2.179-0.48-2.828"/>
  <path transform="scale(1.3333)" d="m136.77 1264.2c-0.492-1.004-1.703-1.425-2.711-0.937-1.007 0.492-1.429 1.703-0.937 2.711 0.488 1.008 1.699 1.426 2.707 0.937 1.004-0.488 1.43-1.703 0.941-2.711"/>
  <path transform="scale(1.3333)" d="m134.04 1255.5c-0.058-1.117-1.008-1.976-2.129-1.922-1.113 0.055-1.98 1-1.926 2.122 0.059 1.121 1.008 1.98 2.129 1.925 1.114-0.058 1.981-1.007 1.926-2.125"/>
  <path transform="scale(1.3333)" d="m135.02 1246.1c0.207-1.098-0.515-2.157-1.617-2.368-1.101-0.207-2.16 0.516-2.371 1.614-0.207 1.101 0.516 2.16 1.617 2.367 1.102 0.207 2.16-0.512 2.371-1.613"/>
  <path transform="scale(1.3333)" d="m140.88 1236.7c0.562-0.965 0.238-2.203-0.731-2.773-0.964-0.567-2.203-0.243-2.769 0.726-0.57 0.965-0.242 2.203 0.723 2.774 0.968 0.562 2.207 0.238 2.777-0.727"/>
  <path transform="scale(1.3333)" d="m142.86 1270.1c-0.828-0.754-2.109-0.692-2.863 0.137-0.754 0.828-0.695 2.109 0.133 2.863s2.109 0.695 2.863-0.137c0.754-0.828 0.692-2.105-0.133-2.863"/>
  <path transform="scale(1.3333)" d="m147.95 1236.4c0.645-0.703 1.735-0.75 2.438-0.113 0.707 0.645 0.758 1.734 0.113 2.438-0.641 0.707-1.73 0.757-2.438 0.113-0.703-0.645-0.757-1.734-0.113-2.438m-13.883 19.614c0.7 6.418 2.989 8.722 4.246 9.867l9.665 8.828c0.875 0.797 0.937 2.152 0.14 3.027l-8.836 9.688c-1.601 1.754-1.472 4.476 0.281 6.074l9.692 8.836c0.875 0.801 0.937 2.156 0.141 3.027l-7.782 9.75c-1.484 1.856-1.183 4.559 0.672 6.043l11.598 8.274c0.933 0.734 1.094 2.078 0.363 3.008l-4.996 7.472c-1.383 1.926-0.938 4.613 0.992 5.996s4.617 0.938 6-0.992l8.742-12.246c1.469-1.871 1.141-4.57-0.73-6.039l-11.574-8.16c-0.926-0.738-1.075-2.086-0.336-3.012l7.742-9.062c1.598-1.754 1.476-4.473-0.281-6.075l-9.696-8.828c-0.875-0.797-0.937-2.156-0.14-3.031l8.84-9.684c1.601-1.757 1.476-4.476-0.278-6.078l-12.836-11.726c-1.757-1.602-1.715-4.196-0.281-6.074l13.363-17.844c1.313-1.719 1.227-3.727-0.234-5.059-0.731-0.668-2.172-1.445-4.809-1.164-12.605 1.359-21.062 12.406-19.668 25.184"/>
 </g>
 <path transform="scale(1.3333)" d="m862 991.9h-724.51c-26.972 0-48.84-21.863-48.84-48.839v-1.547c0-26.977 21.868-48.844 48.84-48.844h724.51c26.973 0 48.84 21.867 48.84 48.844v1.547c0 26.976-21.867 48.839-48.84 48.839"/>
 <path transform="scale(1.3333)" d="m151.8 920.48v9.105c-2.364-1.059-4.668-1.855-6.914-2.394-2.25-0.536-4.371-0.805-6.371-0.805-2.649 0-4.61 0.363-5.879 1.094-1.266 0.73-1.903 1.863-1.903 3.402 0 1.152 0.426 2.055 1.27 2.707 0.863 0.633 2.422 1.184 4.668 1.644l4.726 0.95c4.786 0.961 8.184 2.422 10.2 4.379 2.019 1.961 3.027 4.746 3.027 8.359 0 4.742-1.41 8.277-4.234 10.602-2.805 2.308-7.102 3.46-12.883 3.46-2.727 0-5.465-0.261-8.211-0.781-2.75-0.515-5.496-1.285-8.242-2.304v-9.364c2.746 1.461 5.398 2.563 7.953 3.313 2.574 0.73 5.05 1.094 7.433 1.094 2.422 0 4.274-0.403 5.563-1.208 1.285-0.808 1.93-1.96 1.93-3.46 0-1.344-0.442-2.379-1.325-3.11-0.867-0.73-2.605-1.383-5.215-1.961l-4.296-0.949c-4.301-0.922-7.454-2.395-9.45-4.41-1.98-2.016-2.968-4.735-2.968-8.156 0-4.282 1.382-7.579 4.148-9.883 2.766-2.305 6.742-3.457 11.93-3.457 2.363 0 4.793 0.179 7.293 0.547 2.496 0.343 5.078 0.875 7.75 1.586zm39.351 25.445v2.937h-24.121c0.25 2.422 1.125 4.235 2.621 5.446 1.5 1.211 3.594 1.816 6.285 1.816 2.168 0 4.387-0.316 6.657-0.949 2.285-0.656 4.629-1.637 7.031-2.942v7.954c-2.441 0.921-4.883 1.613-7.32 2.074-2.442 0.48-4.879 0.722-7.321 0.722-5.84 0-10.383-1.48-13.629-4.437-3.226-2.981-4.843-7.148-4.843-12.508 0-5.265 1.586-9.402 4.757-12.418 3.188-3.019 7.567-4.527 13.141-4.527 5.07 0 9.125 1.527 12.16 4.582 3.055 3.055 4.582 7.137 4.582 12.25zm-10.605-3.43c0-1.961-0.578-3.535-1.731-4.726-1.132-1.211-2.621-1.817-4.465-1.817-2 0-3.621 0.567-4.871 1.699-1.25 1.118-2.027 2.731-2.332 4.844zm42.824-7.262c1.305-2 2.852-3.515 4.637-4.554 1.808-1.055 3.785-1.586 5.937-1.586 3.707 0 6.531 1.144 8.473 3.43 1.941 2.285 2.91 5.609 2.91 9.972v19.653h-10.375v-16.829c0.02-0.25 0.031-0.511 0.031-0.781 0.02-0.265 0.032-0.652 0.032-1.152 0-2.285-0.336-3.938-1.008-4.957-0.676-1.035-1.758-1.555-3.258-1.555-1.961 0-3.477 0.809-4.555 2.422-1.054 1.613-1.601 3.945-1.64 7v15.852h-10.375v-16.829c0-3.574-0.309-5.871-0.922-6.89-0.614-1.035-1.711-1.555-3.285-1.555-1.977 0-3.504 0.817-4.582 2.449-1.075 1.614-1.614 3.93-1.614 6.946v15.879h-10.375v-32.274h10.375v4.723c1.27-1.824 2.719-3.199 4.352-4.121 1.652-0.922 3.469-1.383 5.445-1.383 2.231 0 4.199 0.539 5.91 1.613 1.707 1.078 3.004 2.586 3.887 4.527zm23.793-5.359h10.316v32.274h-10.316zm0-12.566h10.316v8.414h-10.316zm19.238 0h10.317v44.84h-10.317zm17.883 0h10.316v44.84h-10.316zm50.098 28.617v2.937h-24.121c0.25 2.422 1.125 4.235 2.625 5.446 1.496 1.211 3.589 1.816 6.281 1.816 2.172 0 4.39-0.316 6.656-0.949 2.285-0.656 4.629-1.637 7.031-2.942v7.954c-2.441 0.921-4.879 1.613-7.32 2.074-2.437 0.48-4.879 0.722-7.32 0.722-5.84 0-10.383-1.48-13.629-4.437-3.227-2.981-4.84-7.148-4.84-12.508 0-5.265 1.582-9.402 4.754-12.418 3.187-3.019 7.57-4.527 13.141-4.527 5.07 0 9.125 1.527 12.16 4.582 3.054 3.055 4.582 7.137 4.582 12.25zm-10.606-3.43c0-1.961-0.574-3.535-1.726-4.726-1.137-1.211-2.625-1.817-4.469-1.817-1.996 0-3.621 0.567-4.871 1.699-1.246 1.118-2.024 2.731-2.332 4.844zm36.887-3.832c-0.902-0.426-1.805-0.73-2.707-0.926-0.883-0.211-1.777-0.316-2.68-0.316-2.652 0-4.699 0.855-6.14 2.566-1.418 1.692-2.129 4.121-2.129 7.289v14.872h-10.317v-32.274h10.317v5.301c1.324-2.113 2.84-3.652 4.55-4.61 1.731-0.98 3.793-1.472 6.196-1.472 0.347 0 0.722 0.019 1.125 0.058 0.402 0.02 0.988 0.079 1.758 0.172zm16.172-2.191c-2.285 0-4.035 0.824-5.246 2.476-1.192 1.633-1.785 3.996-1.785 7.09s0.593 5.465 1.785 7.117c1.211 1.633 2.961 2.45 5.246 2.45 2.246 0 3.969-0.817 5.156-2.45 1.192-1.652 1.789-4.023 1.789-7.117s-0.597-5.457-1.789-7.09c-1.187-1.652-2.91-2.476-5.156-2.476zm0-7.379c5.551 0 9.883 1.5 12.996 4.496 3.133 2.996 4.695 7.148 4.695 12.449s-1.562 9.453-4.695 12.449c-3.113 2.996-7.445 4.496-12.996 4.496-5.57 0-9.934-1.5-13.082-4.496-3.133-2.996-4.699-7.148-4.699-12.449s1.566-9.453 4.699-12.449c3.148-2.996 7.512-4.496 13.082-4.496zm57.41 5.504v-17.289h10.375v44.84h-10.375v-4.668c-1.422 1.902-2.984 3.293-4.695 4.175-1.711 0.887-3.688 1.328-5.938 1.328-3.976 0-7.242-1.578-9.797-4.726-2.554-3.172-3.832-7.242-3.832-12.219 0-4.976 1.278-9.039 3.832-12.187 2.555-3.172 5.821-4.758 9.797-4.758 2.231 0 4.199 0.453 5.91 1.355 1.727 0.883 3.301 2.266 4.723 4.149zm-6.801 20.894c2.211 0 3.891-0.808 5.043-2.422 1.172-1.613 1.758-3.957 1.758-7.031s-0.586-5.418-1.758-7.031c-1.152-1.613-2.832-2.422-5.043-2.422-2.187 0-3.871 0.809-5.043 2.422-1.152 1.613-1.726 3.957-1.726 7.031s0.574 5.418 1.726 7.031c1.172 1.614 2.856 2.422 5.043 2.422zm54.832-9.566v2.937h-24.121c0.25 2.422 1.125 4.235 2.625 5.446 1.496 1.211 3.59 1.816 6.281 1.816 2.168 0 4.387-0.316 6.657-0.949 2.285-0.656 4.629-1.637 7.031-2.942v7.954c-2.442 0.921-4.879 1.613-7.32 2.074-2.442 0.48-4.879 0.722-7.321 0.722-5.84 0-10.383-1.48-13.629-4.437-3.226-2.981-4.839-7.148-4.839-12.508 0-5.265 1.582-9.402 4.753-12.418 3.188-3.019 7.571-4.527 13.141-4.527 5.07 0 9.125 1.527 12.16 4.582 3.055 3.055 4.582 7.137 4.582 12.25zm-10.605-3.43c0-1.961-0.574-3.535-1.731-4.726-1.133-1.211-2.621-1.817-4.465-1.817-1.996 0-3.621 0.567-4.871 1.699-1.246 1.118-2.027 2.731-2.332 4.844zm28.304-23.371h11.094v43.024h-11.094zm50.458 23.371v19.653h-10.376v-15.043c0-2.786-0.066-4.707-0.199-5.762-0.117-1.059-0.328-1.836-0.636-2.336-0.403-0.672-0.95-1.192-1.641-1.555-0.691-0.387-1.481-0.578-2.363-0.578-2.153 0-3.844 0.836-5.071 2.508-1.23 1.652-1.843 3.949-1.843 6.887v15.879h-10.317v-32.274h10.317v4.723c1.554-1.883 3.207-3.266 4.953-4.149 1.75-0.902 3.679-1.355 5.793-1.355 3.726 0 6.55 1.144 8.472 3.43 1.942 2.285 2.911 5.609 2.911 9.972zm-1.75-12.621h10.316l8.039 22.301 8.012-22.301h10.347l-12.711 32.274h-11.324zm67.675 16.051v2.937h-24.117c0.25 2.422 1.125 4.235 2.621 5.446 1.5 1.211 3.594 1.816 6.281 1.816 2.172 0 4.391-0.316 6.657-0.949 2.289-0.656 4.633-1.637 7.031-2.942v7.954c-2.438 0.921-4.879 1.613-7.316 2.074-2.442 0.48-4.883 0.722-7.321 0.722-5.84 0-10.383-1.48-13.629-4.437-3.23-2.981-4.843-7.148-4.843-12.508 0-5.265 1.585-9.402 4.753-12.418 3.192-3.019 7.571-4.527 13.141-4.527 5.074 0 9.125 1.527 12.16 4.582 3.055 3.055 4.582 7.137 4.582 12.25zm-10.601-3.43c0-1.961-0.578-3.535-1.731-4.726-1.133-1.211-2.621-1.817-4.465-1.817-2 0-3.621 0.567-4.871 1.699-1.25 1.118-2.027 2.731-2.336 4.844zm38.125-11.613v7.836c-2.211-0.922-4.344-1.613-6.399-2.074-2.054-0.461-3.996-0.692-5.82-0.692-1.961 0-3.418 0.25-4.379 0.75-0.941 0.481-1.414 1.231-1.414 2.246 0 0.828 0.355 1.461 1.066 1.903 0.731 0.441 2.028 0.769 3.891 0.98l1.816 0.258c5.282 0.676 8.836 1.777 10.661 3.316 1.828 1.536 2.738 3.946 2.738 7.231 0 3.441-1.266 6.023-3.805 7.754-2.535 1.726-6.32 2.593-11.351 2.593-2.133 0-4.344-0.175-6.629-0.519-2.266-0.328-4.602-0.828-7-1.5v-7.836c2.054 0.996 4.156 1.746 6.308 2.246 2.172 0.5 4.371 0.75 6.602 0.75 2.016 0 3.531-0.277 4.551-0.836 1.019-0.558 1.527-1.383 1.527-2.476 0-0.922-0.355-1.606-1.066-2.047-0.692-0.461-2.082-0.817-4.18-1.067l-1.813-0.23c-4.593-0.578-7.808-1.645-9.656-3.199-1.844-1.555-2.765-3.918-2.765-7.09 0-3.418 1.171-5.953 3.515-7.606 2.344-1.652 5.938-2.48 10.777-2.48 1.903 0 3.903 0.144 5.997 0.433 2.093 0.289 4.367 0.739 6.828 1.356zm16.328-10.172v9.164h10.633v7.375h-10.633v13.688c0 1.5 0.297 2.515 0.894 3.054 0.594 0.52 1.778 0.778 3.543 0.778h5.301v7.379h-8.844c-4.074 0-6.964-0.848-8.675-2.536-1.692-1.711-2.536-4.601-2.536-8.675v-13.688h-5.128v-7.375h5.128v-9.164zm15.055 9.164h10.316v32.274h-10.316zm0-12.566h10.316v8.414h-10.316zm41.195 39.363c-1.422 1.883-2.985 3.266-4.695 4.148-1.711 0.887-3.688 1.329-5.938 1.329-3.937 0-7.195-1.547-9.77-4.641-2.574-3.113-3.859-7.07-3.859-11.871 0-4.824 1.285-8.77 3.859-11.844 2.575-3.094 5.833-4.641 9.77-4.641 2.25 0 4.227 0.442 5.938 1.325 1.71 0.886 3.273 2.277 4.695 4.179v-4.781h10.375v29.016c0 5.187-1.645 9.144-4.93 11.871-3.265 2.75-8.008 4.121-14.234 4.121-2.016 0-3.965-0.152-5.848-0.461-1.883-0.305-3.777-0.777-5.68-1.41v-8.039c1.809 1.035 3.575 1.804 5.305 2.304 1.727 0.52 3.469 0.778 5.215 0.778 3.383 0 5.859-0.739 7.434-2.219 1.578-1.48 2.363-3.793 2.363-6.945zm-6.801-20.086c-2.133 0-3.793 0.789-4.984 2.363-1.192 1.578-1.785 3.805-1.785 6.688 0 2.957 0.574 5.207 1.726 6.742 1.152 1.516 2.836 2.277 5.043 2.277 2.152 0 3.824-0.789 5.016-2.363 1.191-1.574 1.785-3.793 1.785-6.656 0-2.883-0.594-5.11-1.785-6.688-1.192-1.574-2.864-2.363-5.016-2.363zm37.078 11.039c-2.148 0-3.773 0.363-4.867 1.094-1.078 0.73-1.613 1.805-1.613 3.226 0 1.309 0.429 2.336 1.297 3.086 0.882 0.731 2.101 1.094 3.656 1.094 1.941 0 3.574-0.691 4.902-2.074 1.324-1.402 1.988-3.152 1.988-5.246v-1.18zm15.766-3.891v18.415h-10.403v-4.786c-1.386 1.961-2.941 3.391-4.671 4.293-1.727 0.887-3.832 1.328-6.309 1.328-3.344 0-6.063-0.972-8.156-2.91-2.074-1.961-3.114-4.496-3.114-7.609 0-3.785 1.297-6.559 3.891-8.328 2.613-1.766 6.707-2.653 12.277-2.653h6.082v-0.804c0-1.633-0.644-2.824-1.933-3.574-1.285-0.77-3.293-1.153-6.024-1.153-2.207 0-4.261 0.223-6.164 0.664-1.902 0.442-3.672 1.106-5.304 1.989v-7.868c2.211-0.539 4.429-0.941 6.66-1.211 2.226-0.289 4.453-0.433 6.683-0.433 5.821 0 10.02 1.152 12.594 3.461 2.594 2.285 3.891 6.011 3.891 11.179zm30.137-12.851v8.414c-1.403-0.961-2.813-1.672-4.235-2.133-1.402-0.461-2.863-0.691-4.383-0.691-2.879 0-5.129 0.843-6.742 2.535-1.594 1.672-2.39 4.016-2.39 7.031 0 3.016 0.796 5.371 2.39 7.059 1.613 1.672 3.863 2.508 6.742 2.508 1.618 0 3.145-0.239 4.582-0.719 1.461-0.481 2.805-1.192 4.036-2.133v8.441c-1.614 0.598-3.254 1.039-4.926 1.329-1.653 0.304-3.317 0.46-4.989 0.46-5.82 0-10.371-1.488-13.656-4.468-3.285-2.996-4.929-7.157-4.929-12.477s1.644-9.473 4.929-12.449c3.285-2.996 7.836-4.496 13.656-4.496 1.692 0 3.356 0.156 4.989 0.461 1.652 0.289 3.293 0.73 4.926 1.328zm4.906-1.008h10.316v32.274h-10.316zm0-12.566h10.316v8.414h-10.316zm34.597 19.164c-2.285 0-4.035 0.824-5.246 2.476-1.191 1.633-1.785 3.996-1.785 7.09s0.594 5.465 1.785 7.117c1.211 1.633 2.961 2.45 5.246 2.45 2.247 0 3.965-0.817 5.157-2.45 1.191-1.652 1.789-4.023 1.789-7.117s-0.598-5.457-1.789-7.09c-1.192-1.652-2.91-2.476-5.157-2.476zm0-7.379c5.551 0 9.883 1.5 12.997 4.496 3.132 2.996 4.695 7.148 4.695 12.449s-1.563 9.453-4.695 12.449c-3.114 2.996-7.446 4.496-12.997 4.496-5.57 0-9.933-1.5-13.082-4.496-3.132-2.996-4.699-7.148-4.699-12.449s1.567-9.453 4.699-12.449c3.149-2.996 7.512-4.496 13.082-4.496zm4.524-14.149h8.156l-10.633 10.836h-5.648zm48.445 27.551v19.653h-10.375v-15.043c0-2.786-0.066-4.707-0.199-5.762-0.117-1.059-0.328-1.836-0.637-2.336-0.402-0.672-0.949-1.192-1.64-1.555-0.692-0.387-1.481-0.578-2.364-0.578-2.152 0-3.843 0.836-5.07 2.508-1.23 1.652-1.844 3.949-1.844 6.887v15.879h-10.316v-32.274h10.316v4.723c1.555-1.883 3.207-3.266 4.953-4.149 1.75-0.902 3.68-1.355 5.793-1.355 3.727 0 6.551 1.144 8.473 3.43 1.941 2.285 2.91 5.609 2.91 9.972z" fill="#fff"/>
 <g stroke="#fff" stroke-width="2.6826">
  <path transform="scale(1.3333 -1.3333)" d="m320.75-821.41c0-5.489-4.449-9.942-9.941-9.942s-9.942 4.453-9.942 9.942c0 5.492 4.45 9.945 9.942 9.945s9.941-4.453 9.941-9.945"/>
  <path transform="scale(1.3333 -1.3333)" d="m263.55-821.41c0-5.489-4.453-9.942-9.946-9.942-5.488 0-9.941 4.453-9.941 9.942 0 5.492 4.453 9.945 9.941 9.945 5.493 0 9.946-4.453 9.946-9.945"/>
  <path transform="scale(1.3333 -1.3333)" d="m206.36-821.41c0-5.489-4.449-9.942-9.941-9.942s-9.941 4.453-9.941 9.942c0 5.492 4.449 9.945 9.941 9.945s9.941-4.453 9.941-9.945"/>
 </g>
 <g stroke="#1a1a1a" stroke-linecap="round" stroke-linejoin="round" stroke-width="3.2978">
  <path transform="scale(1.3333)" d="m766.16 422.88 21.606-46.508 20.511-126.24-18.14-67.363-137.4-31.438 7.313 74.934-26.215 100.6-25.656 49.508z" fill="#f9f9f9"/>
  <path transform="scale(1.3333)" d="m654.48 169.27-116.4-21.515 121.97 78.504z" fill="#333"/>
  <path transform="scale(1.3333)" d="m652.74 151.33 103.98 81.031 51.558 17.77-18.14-67.363z" fill="#ccc"/>
  <path transform="scale(1.3333)" d="m808.28 250.13-51.558-17.77 34.371 123.06z" fill="#999"/>
  <path transform="scale(1.3333)" d="m787.77 376.37-117.69 17.77 96.086 28.738z" fill="#ccc"/>
  <path transform="scale(1.3333)" d="m652.74 151.33-22.953 12.754 24.692 5.191z" fill="#ccc"/>
  <path transform="scale(1.3333)" d="m660.05 226.26-134.57-37.801-27.503-16.566 40.101-24.137z" fill="#4d4d4d"/>
  <path transform="scale(1.3333)" d="m538.08 147.76-212.77 20.824-23.235 30.223 195.91-26.91z" fill="#4d4d4d"/>
  <path transform="scale(1.3333)" d="m497.98 171.9 27.503 16.566-217.5 36.473-5.907-26.129z" fill="#666"/>
  <path transform="scale(1.3333)" d="m325.3 168.58-23.235 30.223-66.558 61.293 4.676-37.817 25.781-22.277z" fill="#333"/>
  <path transform="scale(1.3333)" d="m307.98 224.93-5.907-26.129-87.66 126.38-4.773 38.191z" fill="#666"/>
  <path transform="scale(1.3333)" d="m302.07 198.8-66.558 61.293-2.141 7.804-13.387 15.45 1.352 32.253z" fill="#4d4d4d"/>
  <path transform="scale(1.3333)" d="m307.98 224.93 25.429 65.168-89.398 85.738-34.371-12.465z" fill="#808080"/>
  <path transform="scale(1.3333)" d="m209.64 363.38 34.371 12.465-12.207 70.66-17.867 0.414z" fill="#808080"/>
  <path transform="scale(1.3333)" d="m244.01 375.84 17.187 1.324-0.238 27.848-9.07 26.785-20.086 14.703z" fill="#4d4d4d"/>
  <path transform="scale(1.3333)" d="m261.2 377.16 24.582-11.668 47.629-75.394-89.398 85.738z" fill="#4d4d4d"/>
  <path transform="scale(1.3333)" d="m261.2 377.16 11.696-6.102 8.191 17.68 3.039 17.254-8.605 17.313 4.175 10.742-16.347 32.488-3.528-20.039-7.929-14.703 9.07-26.785z" fill="#333"/>
 </g>
 <g fill="#4d4d4d" stroke="#1a1a1a" stroke-linecap="round" stroke-linejoin="round" stroke-width="3.2978">
  <path transform="scale(1.3333)" d="m272.89 371.06 12.886-5.566 6.446-10.344 5.968-4.242-0.953 17.504-5.015 13.953-11.141 6.375z"/>
  <path transform="scale(1.3333)" d="m298.19 350.91 12.891-13.793 6.324 22.012-15.316 30.098-9.867-6.86 5.015-13.953z"/>
  <path transform="scale(1.3333)" d="m302.09 389.23-22.399 44.824-4.175-10.742 8.605-17.313-3.039-17.254 11.141-6.375z"/>
 </g>
 <g stroke="#1a1a1a" stroke-linecap="round" stroke-linejoin="round" stroke-width="3.2978">
  <path transform="scale(1.3333)" d="m263.34 466.54-9.942 38.098-8.101 7.875-8.778-32.629-13.839-7.125-8.75-25.844 17.867-0.414 20.086-14.703 7.929 14.703z" fill="#808080"/>
  <path transform="scale(1.3333)" d="m222.68 472.76 7.765 43.504 14.852-3.75-8.778-32.629z" fill="#f9f9f9"/>
  <path transform="scale(1.3333)" d="m376.61 311.86 33.926 17.629-17.559 48.879-1.414-21.613z" fill="#4d4d4d"/>
  <path transform="scale(1.3333)" d="m392.98 378.36-42.695 33.258-34.906 14.606 35.578 6.398z" fill="#4d4d4d"/>
  <path transform="scale(1.3333)" d="m376.61 311.86-43.207-21.753-41.183 65.05 18.859-18.035 17.934-16.262 7.703 0.707 26.73 15.422 11.477 13.5 16.64 6.266z" fill="#333"/>
  <path transform="scale(1.3333)" d="m350.96 432.62 26.332 36.758-49.5 10.949-11.934-18.832-26.734 11.668-9.004 16.973-3.168-10.606 7.637-26.258 30.793-27.05z" fill="#4d4d4d"/>
  <path transform="scale(1.3333)" d="m327.79 480.33-11.934-18.832-26.734 11.668-9.004 16.973 6.141 8.754z" fill="#f9f9f9"/>
  <path transform="scale(1.3333)" d="m377.29 469.38 72.574-85.516 4.391 33.004z" fill="#4d4d4d"/>
  <path transform="scale(1.3333)" d="m449.86 383.87 34.77-63.762 74.422-50.523-27.246 58.383-13.582 27.664-45.071 37.238-18.902 24.004z" fill="#333"/>
  <path transform="scale(1.3333)" d="m559.06 269.58 84.304 20.809-9.523 36.468-66.16-12.754-35.867 13.86z" fill="#4d4d4d"/>
  <path transform="scale(1.3333)" d="m608.18 376.37-10.801-57.762 36.457 8.254z" fill="#ccc"/>
  <path transform="scale(1.3333)" d="m469.95 123.57-7.426-12.191-15.269-8.578 1.074 29.308z" fill="#f9f9f9"/>
  <path transform="scale(1.3333)" d="m660.05 226.26-134.57-37.801-217.5 36.473 25.429 65.168 77.133 39.382-17.559 48.879-42.023 54.262 26.332 36.758 72.574-85.516 34.77-63.762 74.422-50.523 84.304 20.809z" fill="#808080"/>
  <path transform="scale(1.3333)" d="m469.95 123.57-163.4 310.34-21.961 19.359-7.637 26.258 3.168 10.606-7.945 11.14-37.711 42.434 10.023-31.293 8.594-8.488 10.266-37.395 183.91-363.73 1.074 29.308z" fill="#d400aa"/>
  <path transform="scale(1.3333)" d="m233.24 546.14-21.605 46.508-20.512 126.24 18.141 67.363 137.39 31.438-7.308-74.934 26.214-100.6 25.653-49.507z" fill="#1a1a1a"/>
  <path transform="scale(1.3333)" d="m344.92 799.74 116.4 21.516-121.97-78.504z" fill="#999"/>
  <path transform="scale(1.3333)" d="m346.66 817.68-103.98-81.032-51.555-17.769 18.141 67.363z" fill="#4d4d4d"/>
  <path transform="scale(1.3333)" d="m191.12 718.88 51.555 17.769-34.371-123.06z" fill="#333"/>
  <path transform="scale(1.3333)" d="m211.64 592.64 117.69-17.77-96.086-28.738z" fill="#4d4d4d"/>
  <path transform="scale(1.3333)" d="m346.66 817.68 22.957-12.754-24.695-5.192z" fill="#4d4d4d"/>
  <path transform="scale(1.3333)" d="m339.35 742.75 134.57 37.801 27.504 16.566-40.102 24.137z" fill="#ccc"/>
  <path transform="scale(1.3333)" d="m461.32 821.25 212.77-20.824 23.234-30.223-195.91 26.91z" fill="#b3b3b3"/>
  <path transform="scale(1.3333)" d="m501.43 797.12-27.504-16.566 217.5-36.473 5.91 26.129z" fill="#ccc"/>
  <path transform="scale(1.3333)" d="m674.1 800.43 23.234-30.223 66.555-61.293-4.676 37.816-25.777 22.278z" fill="#808080"/>
  <path transform="scale(1.3333)" d="m691.42 744.08 5.91 26.129 87.66-126.38 4.774-38.191z" fill="#ccc"/>
  <path transform="scale(1.3333)" d="m697.33 770.21 66.555-61.293 2.14-7.805 13.391-15.449-1.352-32.254z" fill="#999"/>
  <path transform="scale(1.3333)" d="m691.42 744.08-25.426-65.168 89.399-85.738 34.371 12.465z" fill="#f9f9f9"/>
  <path transform="scale(1.3333)" d="m789.77 605.64-34.371-12.465 12.207-70.66 17.867-0.414z" fill="#ececec"/>
  <path transform="scale(1.3333)" d="m755.4 593.17-17.188-1.324 0.238-27.848 9.071-26.785 20.086-14.703z" fill="#b3b3b3"/>
  <path transform="scale(1.3333)" d="m738.21 591.85-24.586 11.668-47.625 75.394 89.399-85.738z" fill="#999"/>
  <path transform="scale(1.3333)" d="m738.21 591.85-11.695 6.097-8.196-17.675-3.035-17.254 8.606-17.313-4.18-10.742 16.352-32.488 3.523 20.039 7.934 14.703-9.071 26.785z" fill="#4d4d4d"/>
 </g>
 <g fill="#808080" stroke="#1a1a1a" stroke-linecap="round" stroke-linejoin="round" stroke-width="3.2978">
  <path transform="scale(1.3333)" d="m726.51 597.94-12.891 5.571-6.445 10.343-5.965 4.243 0.953-17.504 5.012-13.953 11.14-6.375z"/>
  <path transform="scale(1.3333)" d="m701.21 618.1-12.891 13.793-6.324-22.012 15.313-30.098 9.867 6.86-5.012 13.953z"/>
  <path transform="scale(1.3333)" d="m697.31 579.78 22.398-44.824 4.18 10.742-8.606 17.313 3.035 17.254-11.14 6.375z"/>
 </g>
 <g stroke="#1a1a1a" stroke-linecap="round" stroke-linejoin="round" stroke-width="3.2978">
  <path transform="scale(1.3333)" d="m736.06 502.47 9.937-38.098 8.102-7.875 8.777 32.629 13.84 7.125 8.754 25.844-17.867 0.414-20.086 14.703-7.934-14.703z" fill="#ececec"/>
  <path transform="scale(1.3333)" d="m776.72 496.25-7.762-43.504-14.855 3.75 8.777 32.629z" fill="#f9f9f9"/>
  <path transform="scale(1.3333)" d="m622.79 657.16-33.926-17.629 17.559-48.879 1.414 21.614z" fill="#808080"/>
  <path transform="scale(1.3333)" d="m606.42 590.65 42.695-33.257 34.906-14.606-35.582-6.398z" fill="#b3b3b3"/>
  <path transform="scale(1.3333)" d="m622.79 657.16 43.207 21.754 41.18-65.051-18.856 18.036-17.937 16.261-7.703-0.707-26.727-15.422-11.476-13.504-16.641-6.261z" fill="#4d4d4d"/>
  <path transform="scale(1.3333)" d="m648.44 536.39-26.328-36.758 49.5-10.949 11.934 18.832 26.734-11.672 9-16.969 3.172 10.606-7.637 26.257-30.793 27.051z" fill="#fff"/>
  <path transform="scale(1.3333)" d="m671.61 488.68 11.934 18.832 26.734-11.672 9-16.969-6.136-8.754z" fill="#fff"/>
  <path transform="scale(1.3333)" d="m622.11 499.63-72.578 85.516-4.387-33.004z" fill="#e6e6e6"/>
  <path transform="scale(1.3333)" d="m549.54 585.14-34.769 63.761-74.418 50.524 27.242-58.383 13.586-27.664 45.07-37.238 18.902-24.004z" fill="#ccc"/>
  <path transform="scale(1.3333)" d="m440.35 699.43-84.305-20.809 9.523-36.469 66.161 12.754 35.863-13.859z" fill="#b3b3b3"/>
  <path transform="scale(1.3333)" d="m391.22 592.64 10.801 57.761-36.454-8.254z" fill="#4d4d4d"/>
  <path transform="scale(1.3333)" d="m529.45 845.44 7.43 12.187 15.266 8.582-1.075-29.309z" fill="#f9f9f9"/>
  <path transform="scale(1.3333)" d="m339.35 742.75 134.57 37.801 217.5-36.473-25.426-65.168-77.133-39.383 17.559-48.879 42.019-54.261-26.328-36.758-72.578 85.516-34.769 63.761-74.418 50.524-84.305-20.809z" fill="#f9f9f9"/>
  <path transform="scale(1.3333)" d="m529.45 845.44 163.41-310.34 21.961-19.36 7.637-26.257-3.172-10.606 7.946-11.141 37.714-42.433-10.027 31.293-8.59 8.488-10.265 37.395-183.91 363.73-1.075-29.309z" fill="#d400aa"/>
 </g>
</svg>
